<svg width="25" height="24" viewBox="0 0 25 24" fill="none" xmlns="http://www.w3.org/2000/svg">
<path d="M7.462 2.421C8.738 2.25 10.37 2.25 12.443 2.25H12.557C14.63 2.25 16.262 2.25 17.537 2.421C18.847 2.597 19.891 2.966 20.712 3.788C21.534 4.609 21.902 5.654 22.079 6.962C22.25 8.238 22.25 9.87 22.25 11.943V12.057C22.25 14.13 22.25 15.762 22.079 17.037C21.903 18.347 21.534 19.391 20.712 20.212C19.891 21.034 18.846 21.402 17.538 21.579C16.262 21.75 14.63 21.75 12.557 21.75H12.443C10.37 21.75 8.738 21.75 7.463 21.579C6.153 21.403 5.109 21.034 4.288 20.212C3.466 19.391 3.098 18.346 2.921 17.038C2.75 15.762 2.75 14.13 2.75 12.057V11.943C2.75 9.87 2.75 8.238 2.921 6.963C3.097 5.653 3.466 4.609 4.288 3.788C5.109 2.966 6.154 2.598 7.462 2.421ZM12.235 6.853C12.2031 6.69478 12.1211 6.55106 12.001 6.44318C11.881 6.33531 11.7294 6.26904 11.5686 6.25421C11.4079 6.23939 11.2467 6.2768 11.109 6.3609C10.9712 6.44499 10.8643 6.57128 10.804 6.721L8.992 11.25H7.5C7.30109 11.25 7.11032 11.329 6.96967 11.4697C6.82902 11.6103 6.75 11.8011 6.75 12C6.75 12.1989 6.82902 12.3897 6.96967 12.5303C7.11032 12.671 7.30109 12.75 7.5 12.75H9.5C9.6499 12.7499 9.79632 12.7049 9.92038 12.6207C10.0444 12.5366 10.1404 12.4172 10.196 12.278L11.259 9.621L12.765 17.147C12.7969 17.3052 12.8789 17.4489 12.999 17.5568C13.119 17.6647 13.2706 17.731 13.4314 17.7458C13.5921 17.7606 13.7533 17.7232 13.891 17.6391C14.0288 17.555 14.1357 17.4287 14.196 17.279L16.008 12.75H17.5C17.6989 12.75 17.8897 12.671 18.0303 12.5303C18.171 12.3897 18.25 12.1989 18.25 12C18.25 11.8011 18.171 11.6103 18.0303 11.4697C17.8897 11.329 17.6989 11.25 17.5 11.25H15.5C15.3502 11.25 15.2039 11.2949 15.0798 11.3789C14.9558 11.4628 14.8597 11.582 14.804 11.721L13.74 14.38L12.235 6.853Z" fill="#B8B8B8"/>
</svg>
