<svg width="16" height="16" viewBox="0 0 16 16" fill="none" xmlns="http://www.w3.org/2000/svg">
<path d="M4.9999 7.25C4.85156 7.25 4.70656 7.29399 4.58322 7.3764C4.45988 7.45881 4.36376 7.57594 4.30699 7.71299C4.25022 7.85003 4.23537 8.00083 4.26431 8.14632C4.29325 8.2918 4.36468 8.42544 4.46957 8.53033C4.57446 8.63522 4.7081 8.70665 4.85358 8.73559C4.99907 8.76453 5.14987 8.74968 5.28691 8.69291C5.42396 8.63614 5.54109 8.54002 5.6235 8.41668C5.70591 8.29334 5.7499 8.14834 5.7499 8C5.7499 7.80109 5.67088 7.61032 5.53023 7.46967C5.38958 7.32902 5.19881 7.25 4.9999 7.25ZM7.9999 7.25C7.85156 7.25 7.70656 7.29399 7.58322 7.3764C7.45988 7.45881 7.36376 7.57594 7.30699 7.71299C7.25022 7.85003 7.23537 8.00083 7.26431 8.14632C7.29325 8.2918 7.36468 8.42544 7.46957 8.53033C7.57446 8.63522 7.7081 8.70665 7.85358 8.73559C7.99907 8.76453 8.14987 8.74968 8.28691 8.69291C8.42396 8.63614 8.54109 8.54002 8.6235 8.41668C8.70591 8.29334 8.7499 8.14834 8.7499 8C8.7499 7.80109 8.67088 7.61032 8.53023 7.46967C8.38958 7.32902 8.19881 7.25 7.9999 7.25ZM10.9999 7.25C10.8516 7.25 10.7066 7.29399 10.5832 7.3764C10.4599 7.45881 10.3638 7.57594 10.307 7.71299C10.2502 7.85003 10.2354 8.00083 10.2643 8.14632C10.2932 8.2918 10.3647 8.42544 10.4696 8.53033C10.5745 8.63522 10.7081 8.70665 10.8536 8.73559C10.9991 8.76453 11.1499 8.74968 11.2869 8.69291C11.424 8.63614 11.5411 8.54002 11.6235 8.41668C11.7059 8.29334 11.7499 8.14834 11.7499 8C11.7499 7.80109 11.6709 7.61032 11.5302 7.46967C11.3896 7.32902 11.1988 7.25 10.9999 7.25ZM7.9999 0.5C7.01499 0.5 6.03971 0.693993 5.12977 1.0709C4.21983 1.44781 3.39304 2.00026 2.6966 2.6967C1.29008 4.10322 0.4999 6.01088 0.4999 8C0.493975 9.73174 1.09355 11.4111 2.1949 12.7475L0.6949 14.2475C0.590831 14.353 0.520334 14.4869 0.492304 14.6324C0.464273 14.7779 0.479965 14.9284 0.5374 15.065C0.599693 15.1999 0.700678 15.3133 0.827535 15.3908C0.954392 15.4682 1.1014 15.5063 1.2499 15.5H7.9999C9.98902 15.5 11.8967 14.7098 13.3032 13.3033C14.7097 11.8968 15.4999 9.98912 15.4999 8C15.4999 6.01088 14.7097 4.10322 13.3032 2.6967C11.8967 1.29018 9.98902 0.5 7.9999 0.5ZM7.9999 14H3.0574L3.7549 13.3025C3.82577 13.233 3.88214 13.1502 3.92077 13.0588C3.95939 12.9674 3.97949 12.8692 3.9799 12.77C3.97708 12.5722 3.89621 12.3835 3.7549 12.245C2.77284 11.264 2.16128 9.9729 2.02442 8.59159C1.88756 7.21029 2.23386 5.82425 3.00432 4.66964C3.77478 3.51503 4.92174 2.66327 6.24979 2.25948C7.57783 1.85569 9.00479 1.92485 10.2876 2.45519C11.5703 2.98552 12.6295 3.94421 13.2847 5.16792C13.9399 6.39163 14.1506 7.80466 13.8807 9.16625C13.6109 10.5279 12.8774 11.7538 11.8051 12.6352C10.7327 13.5166 9.38797 13.9989 7.9999 14Z" fill="#5E5E5E"/>
</svg>
